<svg viewBox="0 0 760 420" xmlns="http://www.w3.org/2000/svg" font-family="Helvetica, Arial, sans-serif"><rect width="100%" height="100%" fill="white"/><text x="60" y="24" font-size="18" font-weight="bold" fill="#111">Traversal p95 latency by hop depth</text><line x1="60.0" y1="40.0" x2="60.0" y2="330.0" stroke="#333" stroke-width="1"/><line x1="60.0" y1="330.0" x2="740.0" y2="330.0" stroke="#333" stroke-width="1"/><text x="18.0" y="185.0" font-size="11" fill="#333" transform="rotate(-90 18.0 185.0)">p95 latency (ms)</text><line x1="60.0" y1="330.0" x2="740.0" y2="330.0" stroke="#eee" stroke-width="1"/><text x="54.0" y="333.0" font-size="10" fill="#666" text-anchor="end">0.0</text><line x1="60.0" y1="257.5" x2="740.0" y2="257.5" stroke="#eee" stroke-width="1"/><text x="54.0" y="260.5" font-size="10" fill="#666" text-anchor="end">191.5</text><line x1="60.0" y1="185.0" x2="740.0" y2="185.0" stroke="#eee" stroke-width="1"/><text x="54.0" y="188.0" font-size="10" fill="#666" text-anchor="end">383.0</text><line x1="60.0" y1="112.5" x2="740.0" y2="112.5" stroke="#eee" stroke-width="1"/><text x="54.0" y="115.5" font-size="10" fill="#666" text-anchor="end">574.5</text><line x1="60.0" y1="40.0" x2="740.0" y2="40.0" stroke="#eee" stroke-width="1"/><text x="54.0" y="43.0" font-size="10" fill="#666" text-anchor="end">766.0</text><rect x="94.0" y="227.3" width="142.8" height="102.7" fill="#2563eb"/><text x="173.3" y="346.0" font-size="10" fill="#333" text-anchor="middle" transform="rotate(-20 173.3 346.0)">1-hop</text><rect x="320.7" y="209.7" width="142.8" height="120.3" fill="#2563eb"/><text x="400.0" y="346.0" font-size="10" fill="#333" text-anchor="middle" transform="rotate(-20 400.0 346.0)">2-hop</text><rect x="547.3" y="40.0" width="142.8" height="290.0" fill="#2563eb"/><text x="626.7" y="346.0" font-size="10" fill="#333" text-anchor="middle" transform="rotate(-20 626.7 346.0)">3-hop</text><rect x="60.0" y="390.0" width="10" height="10" fill="#2563eb"/><text x="74.0" y="399.0" font-size="11" fill="#333">CognoDB Cloud (c0 free tier)</text></svg>